<mxfile host="app.diagrams.net" modified="2024-03-24T12:46:17.698Z" agent="Mozilla/5.0 (Windows NT 10.0; Win64; x64) AppleWebKit/537.36 (KHTML, like Gecko) Chrome/122.0.0.0 Safari/537.36" version="24.1.0" etag="QujhvzT-U6hb--RkZO9p" type="github">
  <diagram name="第 1 页" id="z21wq6y7bUXRwxiZOQIr">
    <mxGraphModel>
      <root>
        <mxCell id="0" />
        <mxCell id="1" parent="0" />
      </root>
    </mxGraphModel>
  </diagram>
</mxfile>
